<?xml version="1.0" encoding="UTF-8" standalone="no"?>
<svg
   xmlns:dc="http://purl.org/dc/elements/1.1/"
   xmlns:cc="http://creativecommons.org/ns#"
   xmlns:rdf="http://www.w3.org/1999/02/22-rdf-syntax-ns#"
   xmlns:svg="http://www.w3.org/2000/svg"
   xmlns="http://www.w3.org/2000/svg"
   viewBox="0 0 513.9787 290.32266"
   height="290.32266"
   width="513.9787"
   xml:space="preserve"
   id="svg2"
   version="1.1"><metadata
     id="metadata8"><rdf:RDF><cc:Work
         rdf:about=""><dc:format>image/svg+xml</dc:format><dc:type
           rdf:resource="http://purl.org/dc/dcmitype/StillImage" /></cc:Work></rdf:RDF></metadata><defs
     id="defs6"><clipPath
       id="clipPath18"
       clipPathUnits="userSpaceOnUse"><path
         id="path16"
         d="M 0,217.742 H 385.484 V 0 H 0 Z" /></clipPath></defs><g
     transform="matrix(1.3333333,0,0,-1.3333333,0,290.32267)"
     id="g10"><g
       id="g12"><g
         clip-path="url(#clipPath18)"
         id="g14"><g
           transform="translate(79.0303,89.96)"
           id="g20"><path
             id="path22"
             style="fill:#01aae7;fill-opacity:1;fill-rule:nonzero;stroke:none"
             d="m 0,0 c 0,-7.028 1.693,-12.3 5.085,-15.813 3.39,-3.516 8.268,-5.272 14.636,-5.272 6.366,0 11.265,1.756 14.697,5.272 3.43,3.513 5.147,8.785 5.147,15.813 v 40.311 c 0,7.026 -1.717,12.297 -5.147,15.813 -3.432,3.514 -8.331,5.272 -14.697,5.272 -6.368,0 -11.246,-1.758 -14.636,-5.272 C 1.693,52.608 0,47.337 0,40.311 Z m -4.465,0 v 40.311 c 0,8.846 2.19,15.317 6.573,19.41 4.382,4.092 10.252,6.139 17.613,6.139 7.358,0 13.249,-2.047 17.674,-6.139 4.422,-4.093 6.635,-10.564 6.635,-19.41 L 44.03,0 c 0,-8.849 -2.213,-15.317 -6.635,-19.41 -4.425,-4.093 -10.316,-6.14 -17.674,-6.14 -7.361,0 -13.231,2.047 -17.613,6.14 -4.383,4.093 -6.573,10.561 -6.573,19.41" /></g><g
           transform="translate(147.2466,107.5723)"
           id="g24"><path
             id="path26"
             style="fill:#01aae7;fill-opacity:1;fill-rule:nonzero;stroke:none"
             d="m 0,0 h 19.721 c 6.366,0 11.265,1.777 14.697,5.334 3.43,3.554 5.147,8.847 5.147,15.875 v 1.489 c 0,7.027 -1.717,12.298 -5.147,15.814 -3.432,3.513 -8.331,5.271 -14.697,5.271 H 0 Z M -4.465,-40.186 V 46.14 c 0,1.24 0.744,1.941 2.232,2.108 h 21.954 c 7.358,0 13.25,-2.047 17.674,-6.14 4.422,-4.092 6.635,-10.563 6.635,-19.41 V 21.209 C 44.03,12.36 41.817,5.87 37.395,1.736 32.971,-2.398 27.079,-4.465 19.721,-4.465 H 0 v -35.721 c 0,-1.488 -0.744,-2.232 -2.233,-2.232 -1.488,0 -2.232,0.744 -2.232,2.232" /></g><g
           transform="translate(201.9424,80.7822)"
           id="g28"><path
             id="path30"
             style="fill:#01aae7;fill-opacity:1;fill-rule:nonzero;stroke:none"
             d="m 0,0 c 0,-3.969 1.178,-6.967 3.535,-8.992 2.357,-2.028 5.436,-3.039 9.24,-3.039 4.465,0 8.702,1.57 12.714,4.713 4.01,3.141 6.014,6.118 6.014,8.93 v 10.419 h -6.821 c -3.721,0 -6.843,-0.124 -9.364,-0.373 C 12.794,11.41 10.252,10.894 7.69,10.108 5.126,9.321 3.204,8.081 1.922,6.388 0.64,4.691 0,2.562 0,0 m -4.341,0 c 0,6.201 2.459,10.48 7.38,12.837 4.919,2.356 12.093,3.535 21.519,3.535 h 6.945 v 3.473 c 0,5.291 -1.364,9.86 -4.092,13.705 -2.729,3.845 -6.823,5.767 -12.279,5.767 -2.233,0 -4.322,-0.269 -6.264,-0.806 C 6.924,37.973 5.415,37.414 4.341,36.837 3.266,36.258 2.562,35.969 2.232,35.969 1.57,35.969 1.033,36.258 0.62,36.837 0.206,37.414 0,37.953 0,38.449 c 0,1.24 1.632,2.419 4.899,3.535 3.266,1.117 6.76,1.674 10.481,1.674 7.111,0 12.298,-2.254 15.566,-6.76 3.265,-4.507 4.898,-10.191 4.898,-17.053 v -33.241 c 0,-1.488 -0.703,-2.232 -2.107,-2.232 -0.664,0 -1.2,0.205 -1.613,0.62 -0.415,0.413 -0.621,0.949 -0.621,1.612 v 6.45 c -5.457,-6.284 -11.659,-9.426 -18.604,-9.426 -5.128,0 -9.283,1.384 -12.465,4.155 C -2.75,-9.447 -4.341,-5.376 -4.341,0" /></g><g
           transform="translate(254.1577,67.3867)"
           id="g32"><path
             id="path34"
             style="fill:#01aae7;fill-opacity:1;fill-rule:nonzero;stroke:none"
             d="m 0,0 v 54.201 c 0,1.405 0.701,2.109 2.108,2.109 1.489,0 2.233,-0.704 2.233,-2.109 v -6.573 c 3.722,6.282 9.468,9.426 17.24,9.426 h 4.589 c 0.578,0 1.074,-0.229 1.488,-0.682 0.413,-0.456 0.621,-0.973 0.621,-1.551 0,-0.579 -0.208,-1.075 -0.621,-1.488 -0.414,-0.415 -0.91,-0.62 -1.488,-0.62 h -4.589 c -4.632,0 -8.663,-1.655 -12.093,-4.961 C 6.057,44.443 4.341,40.103 4.341,34.729 V 0 C 4.341,-0.579 4.112,-1.097 3.658,-1.55 3.203,-2.006 2.686,-2.232 2.108,-2.232 1.529,-2.232 1.033,-2.006 0.62,-1.55 0.205,-1.097 0,-0.579 0,0" /></g><g
           transform="translate(293.4751,67.3867)"
           id="g36"><path
             id="path38"
             style="fill:#01aae7;fill-opacity:1;fill-rule:nonzero;stroke:none"
             d="m 0,0 v 90.914 c 0,1.405 0.702,2.108 2.108,2.108 1.489,0 2.233,-0.703 2.233,-2.108 V 0 C 4.341,-0.579 4.112,-1.097 3.659,-1.55 3.204,-2.006 2.687,-2.232 2.108,-2.232 1.529,-2.232 1.033,-2.006 0.62,-1.55 0.206,-1.097 0,-0.579 0,0" /></g><g
           transform="translate(314.2495,65.585)"
           id="g40"><path
             id="path42"
             style="fill:#01aae7;fill-opacity:1;fill-rule:nonzero;stroke:none"
             d="m 0,0 c -0.867,0.782 -1.302,1.736 -1.302,2.856 0,1.121 0.413,2.072 1.24,2.855 C 0.764,6.494 1.84,6.887 3.163,6.887 4.32,6.887 5.334,6.494 6.201,5.711 7.07,4.928 7.504,3.977 7.504,2.856 7.504,1.81 7.07,0.878 6.201,0.056 5.334,-0.764 4.32,-1.175 3.163,-1.175 1.923,-1.175 0.869,-0.781 0,0" /></g></g></g></g></svg>